<svg
  width="706"
  height="702"
  viewBox="0 0 706 702"
  fill="none"
  xmlns="http://www.w3.org/2000/svg"
>
  <path
    d="M590.667 310.713C590.667 168.407 475.231 53.0463 332.834 53.0463C190.436 53.0463 75 168.407 75 310.713C75 453.018 190.436 568.379 332.834 568.379C475.231 568.379 590.667 453.018 590.667 310.713Z"
    fill="#7B4AE2"
    fill-opacity="0.2"
  />
  <g filter="url(#filter0_d_155_319)">
    <circle cx="595.143" cy="332.11" r="35.8102" fill="#090E16" />
  </g>
  <g clip-path="url(#clip0_155_319)">
    <path
      fill-rule="evenodd"
      clip-rule="evenodd"
      d="M610.251 314.205H580.036C578.491 314.205 577.238 315.458 577.238 317.003V347.218C577.238 348.763 578.491 350.015 580.036 350.015H610.251C611.796 350.015 613.049 348.763 613.049 347.218V317.003C613.049 315.458 611.796 314.205 610.251 314.205ZM598.293 346.112V342.248C598.994 342.836 599.755 343.277 600.577 343.57C601.399 343.864 602.229 344.011 603.066 344.011C603.558 344.011 603.987 343.967 604.353 343.878C604.72 343.79 605.026 343.667 605.272 343.51C605.517 343.353 605.701 343.168 605.821 342.955C605.942 342.741 606.003 342.51 606.003 342.26C606.003 341.922 605.906 341.621 605.713 341.355C605.519 341.089 605.255 340.844 604.921 340.618C604.587 340.393 604.19 340.176 603.731 339.967C603.272 339.757 602.776 339.544 602.245 339.327C600.891 338.763 599.882 338.075 599.218 337.262C598.553 336.449 598.221 335.467 598.221 334.316C598.221 333.415 598.402 332.64 598.765 331.992C599.127 331.344 599.621 330.811 600.245 330.392C600.869 329.974 601.592 329.666 602.414 329.469C603.236 329.271 604.105 329.173 605.024 329.173C605.926 329.173 606.726 329.227 607.422 329.336C608.119 329.444 608.762 329.611 609.35 329.837V333.447C609.06 333.246 608.743 333.068 608.401 332.916C608.059 332.763 607.706 332.636 607.344 332.535C606.981 332.434 606.621 332.36 606.262 332.312C605.904 332.264 605.564 332.239 605.241 332.239C604.798 332.239 604.395 332.282 604.033 332.366C603.67 332.451 603.364 332.569 603.115 332.722C602.865 332.875 602.672 333.058 602.535 333.272C602.398 333.485 602.329 333.724 602.329 333.99C602.329 334.28 602.406 334.539 602.559 334.769C602.712 334.998 602.929 335.216 603.211 335.421C603.493 335.626 603.836 335.827 604.238 336.024C604.641 336.222 605.096 336.425 605.604 336.634C606.297 336.924 606.919 337.232 607.471 337.558C608.022 337.884 608.496 338.252 608.89 338.663C609.285 339.073 609.587 339.542 609.797 340.069C610.006 340.596 610.111 341.21 610.111 341.91C610.111 342.876 609.928 343.687 609.561 344.343C609.195 344.999 608.697 345.53 608.069 345.937C607.441 346.343 606.709 346.635 605.876 346.812C605.042 346.989 604.162 347.078 603.236 347.078C602.285 347.078 601.381 346.997 600.523 346.836C599.665 346.675 598.922 346.434 598.293 346.112ZM596.822 332.634H591.854V346.798H587.918V332.634H582.974V329.452H596.822V332.634Z"
      fill="#7B4AE2"
      fill-opacity="0.5"
    />
  </g>
  <g filter="url(#filter1_d_155_319)">
    <circle cx="110.81" cy="240.794" r="35.8102" fill="#090E16" />
  </g>
  <path
    d="M124.208 234.496C123.79 234.352 123.357 234.216 122.912 234.088C122.985 233.789 123.052 233.494 123.112 233.204C124.093 228.443 123.452 224.608 121.262 223.345C119.162 222.134 115.728 223.396 112.26 226.415C111.927 226.705 111.592 227.012 111.258 227.334C111.035 227.121 110.813 226.915 110.591 226.718C106.956 223.491 103.313 222.131 101.126 223.397C99.0278 224.612 98.4066 228.217 99.2895 232.729C99.3747 233.165 99.4744 233.61 99.5871 234.063C99.0715 234.209 98.5737 234.365 98.0974 234.531C93.8362 236.017 91.1147 238.345 91.1147 240.76C91.1147 243.255 94.0362 245.757 98.4746 247.274C98.8249 247.393 99.1883 247.506 99.5629 247.614C99.4413 248.103 99.3355 248.583 99.2468 249.051C98.405 253.484 99.0624 257.005 101.154 258.211C103.315 259.458 106.942 258.177 110.474 255.09C110.753 254.846 111.033 254.587 111.313 254.316C111.677 254.666 112.04 254.997 112.402 255.308C115.822 258.252 119.201 259.441 121.291 258.231C123.45 256.981 124.151 253.199 123.24 248.598C123.171 248.246 123.09 247.887 122.999 247.522C123.254 247.447 123.504 247.369 123.748 247.288C128.362 245.759 131.364 243.288 131.364 240.76C131.364 238.336 128.555 235.992 124.208 234.496ZM123.207 245.656C122.987 245.729 122.761 245.799 122.531 245.868C122.021 244.255 121.334 242.54 120.493 240.769C121.295 239.039 121.956 237.346 122.451 235.744C122.863 235.863 123.263 235.989 123.648 236.122C127.372 237.404 129.644 239.3 129.644 240.76C129.644 242.316 127.191 244.336 123.207 245.656ZM121.554 248.932C121.956 250.966 122.014 252.806 121.747 254.244C121.507 255.536 121.025 256.397 120.429 256.743C119.161 257.477 116.448 256.522 113.523 254.005C113.188 253.716 112.85 253.408 112.511 253.082C113.645 251.842 114.778 250.4 115.885 248.798C117.83 248.626 119.669 248.343 121.336 247.958C121.418 248.289 121.491 248.614 121.554 248.932ZM104.837 256.616C103.597 257.053 102.61 257.066 102.014 256.722C100.744 255.99 100.216 253.163 100.936 249.371C101.019 248.937 101.117 248.491 101.23 248.035C102.879 248.4 104.704 248.662 106.654 248.82C107.768 250.387 108.934 251.828 110.109 253.089C109.852 253.337 109.597 253.573 109.342 253.795C107.781 255.16 106.216 256.129 104.837 256.616ZM99.0307 245.647C97.0681 244.976 95.4473 244.104 94.3364 243.153C93.3381 242.298 92.8341 241.449 92.8341 240.76C92.8341 239.295 95.0191 237.425 98.6634 236.155C99.1056 236.001 99.5684 235.855 100.049 235.719C100.552 237.357 101.213 239.07 102.01 240.802C101.203 242.56 100.533 244.3 100.024 245.958C99.6817 245.859 99.3499 245.756 99.0307 245.647ZM100.977 232.399C100.22 228.533 100.723 225.617 101.987 224.885C103.333 224.106 106.311 225.217 109.449 228.004C109.65 228.182 109.851 228.368 110.053 228.561C108.884 229.817 107.728 231.247 106.624 232.804C104.732 232.98 102.92 233.262 101.254 233.639C101.149 233.218 101.056 232.804 100.977 232.399ZM118.338 236.686C117.94 235.998 117.531 235.327 117.115 234.673C118.399 234.836 119.629 235.051 120.785 235.315C120.438 236.427 120.005 237.589 119.496 238.781C119.131 238.087 118.745 237.389 118.338 236.686ZM111.258 229.79C112.052 230.649 112.846 231.609 113.627 232.649C112.84 232.612 112.043 232.593 111.239 232.593C110.443 232.593 109.652 232.612 108.87 232.648C109.652 231.617 110.453 230.659 111.258 229.79ZM104.133 236.698C103.735 237.388 103.356 238.083 102.997 238.779C102.496 237.592 102.068 236.424 101.718 235.297C102.866 235.04 104.091 234.83 105.367 234.67C104.944 235.33 104.532 236.006 104.133 236.698V236.698ZM105.404 246.973C104.085 246.826 102.842 246.626 101.694 246.377C102.05 245.229 102.488 244.036 102.999 242.823C103.359 243.519 103.74 244.215 104.14 244.906H104.14C104.548 245.61 104.97 246.3 105.404 246.973ZM111.306 251.852C110.491 250.972 109.678 250 108.884 248.953C109.655 248.984 110.441 248.999 111.239 248.999C112.06 248.999 112.871 248.981 113.669 248.945C112.885 250.01 112.094 250.984 111.306 251.852ZM119.513 242.761C120.051 243.988 120.504 245.174 120.864 246.302C119.697 246.568 118.437 246.783 117.11 246.942C117.528 246.28 117.94 245.597 118.345 244.894C118.755 244.183 119.145 243.471 119.513 242.761ZM116.856 244.035C116.227 245.126 115.581 246.167 114.925 247.15C113.731 247.236 112.497 247.28 111.239 247.28C109.987 247.28 108.768 247.241 107.595 247.165C106.913 246.169 106.253 245.124 105.628 244.044H105.628C105.004 242.967 104.431 241.881 103.911 240.802C104.43 239.719 105.003 238.632 105.623 237.557L105.623 237.557C106.244 236.479 106.898 235.44 107.574 234.45C108.771 234.36 109.999 234.312 111.239 234.312H111.239C112.485 234.312 113.714 234.36 114.911 234.451C115.577 235.434 116.226 236.47 116.85 237.548C117.481 238.638 118.061 239.718 118.585 240.777C118.063 241.855 117.484 242.945 116.856 244.035ZM120.403 224.834C121.751 225.612 122.275 228.746 121.428 232.857C121.374 233.119 121.313 233.386 121.247 233.657C119.577 233.272 117.764 232.985 115.866 232.807C114.76 231.232 113.614 229.8 112.463 228.561C112.772 228.263 113.081 227.979 113.389 227.712C116.36 225.126 119.138 224.105 120.403 224.834ZM111.239 237.166C113.224 237.166 114.833 238.775 114.833 240.76C114.833 242.745 113.224 244.354 111.239 244.354C109.254 244.354 107.645 242.745 107.645 240.76C107.645 238.775 109.254 237.166 111.239 237.166Z"
    fill="#7B4AE2"
    fill-opacity="0.5"
  />
  <g filter="url(#filter2_d_155_319)">
    <circle cx="110.81" cy="469.98" r="35.8102" fill="#090E16" />
  </g>
  <g clip-path="url(#clip1_155_319)">
    <path
      fill-rule="evenodd"
      clip-rule="evenodd"
      d="M104.889 452.074C101.594 452.074 98.9204 454.748 98.9204 458.043C98.9204 461.337 101.594 464.011 104.889 464.011C101.594 464.011 98.9204 466.685 98.9204 469.98C98.9204 473.274 101.594 475.948 104.889 475.948C101.594 475.948 98.9204 478.622 98.9204 481.916C98.9204 485.211 101.594 487.885 104.889 487.885C108.183 487.885 110.857 485.211 110.857 481.916L110.857 469.98C110.857 473.274 113.531 475.948 116.826 475.948C120.12 475.948 122.794 473.274 122.794 469.98C122.794 466.685 120.12 464.011 116.826 464.011C120.12 464.011 122.794 461.337 122.794 458.043C122.794 454.748 120.12 452.074 116.826 452.074H104.889ZM116.826 464.011H110.857L110.857 469.98C110.857 466.685 113.531 464.011 116.826 464.011Z"
      fill="#7B4AE2"
      fill-opacity="0.5"
    />
  </g>
  <g filter="url(#filter3_f_155_319)">
    <circle
      cx="334.624"
      cy="306.148"
      r="255.148"
      fill="#7B4AE2"
      fill-opacity="0.2"
    />
  </g>
  <g filter="url(#filter4_i_155_319)">
    <path
      fill-rule="evenodd"
      clip-rule="evenodd"
      d="M287.635 405.465C324.391 425.056 365.607 422.88 397.901 405.463V448.383L398.266 448.373V473.573H287.635V405.465Z"
      fill="#BB7D52"
    />
    <path
      fill-rule="evenodd"
      clip-rule="evenodd"
      d="M287.635 441.226C324.39 460.819 365.607 458.642 397.901 441.226V468.595L422.734 467.977L423.042 467.988C423.042 533.959 265.326 543.834 265.326 467.889L265.942 467.861L287.635 467.972V441.226V441.226Z"
      fill="#D08B5B"
    />
    <path
      fill-rule="evenodd"
      clip-rule="evenodd"
      d="M223.067 170.098C310.781 114.249 422.996 134.109 460.909 170.937C471.87 197.314 472.645 222.755 469.42 250.065C476.825 244.751 485.631 245.967 492.569 250.916C495.379 273.577 502.909 318.405 469.169 320.35C457.553 464.956 244.72 482.955 215.95 320.823C182.51 319.669 191.527 274.364 193.616 252.608C201.639 246.504 210.8 249.576 216.487 252.307L223.067 170.098V170.098Z"
      fill="#D08B5B"
    />
    <path
      fill-rule="evenodd"
      clip-rule="evenodd"
      d="M210.039 231.339C210.499 232.604 209.002 233.87 204.511 236.172C195.215 240.815 194.4 241.78 194.376 249.053V249.405C194.376 259.185 195.874 261.715 202.322 262.637C208.887 263.558 213.034 265.053 214.186 266.894C214.645 267.7 215.107 271.382 215.107 275.179C215.107 283.349 217.64 294.856 220.75 300.839C229.502 317.87 252.304 326.5 279.943 323.278C293.532 321.551 301.479 318.905 310.116 313.151C323.015 304.522 329.003 293.475 329.924 276.1C330.615 265.513 330.616 265.513 334.071 264.362C338.562 262.752 349.733 262.752 354.34 264.362C357.909 265.628 357.909 265.628 357.909 273.799C357.909 283.234 360.328 294.511 363.552 300.84C372.305 317.87 395.107 326.5 422.631 323.278C436.336 321.552 444.282 318.905 452.92 313.153C465.818 304.523 471.807 293.131 472.958 275.295C473.764 263.558 473.189 264.133 485.857 262.522C492.305 261.717 493.803 259.185 493.803 249.289C493.803 241.464 492.536 239.97 481.826 235.367L475.376 232.604L465.357 229.499L457.987 227.888C453.956 227.082 448.774 226.391 446.585 226.276C444.282 226.276 438.525 224.204 432.766 221.329C423.207 216.61 422.747 216.495 411.461 216.495C398.563 216.495 389.464 219.142 382.093 224.896C379.905 226.621 375.299 228.807 372.074 229.613C368.734 230.419 362.516 232.605 358.255 234.446C347.084 239.164 341.326 238.934 327.046 233.18C320.827 230.65 314.953 228.577 314.148 228.577C313.34 228.577 310.692 226.967 308.274 225.011C300.673 219.027 292.151 216.495 279.022 216.495C267.851 216.495 267.161 216.726 257.257 221.444C250.577 224.666 245.394 226.276 242.284 226.276C239.75 226.391 234.223 227.082 230.077 228.003L210.039 231.339V231.339ZM302.17 246.183C315.988 250.67 320.249 256.768 320.365 272.187C320.48 280.358 320.02 283.005 317.832 287.491C310.232 303.026 288.58 311.772 262.898 309.815C243.206 308.204 233.071 302.681 227.659 290.484C224.204 282.544 223.743 263.558 226.967 257.689C229.962 252.165 235.72 248.369 245.163 245.837C252.534 243.881 256.565 243.651 274.991 243.881C290.883 244.226 297.793 244.802 302.17 246.183V246.183ZM444.972 246.183C458.793 250.67 463.053 256.768 463.169 272.187C463.284 280.358 462.823 283.005 460.635 287.491C453.034 303.026 431.383 311.772 405.701 309.815C386.009 308.204 375.874 302.681 370.461 290.484C367.006 282.544 366.546 263.558 369.77 257.689C372.765 252.165 378.523 248.369 387.966 245.837C395.337 243.881 399.367 243.651 417.793 243.881C433.686 244.226 440.596 244.802 444.972 246.183V246.183Z"
      fill="#A66F49"
    />
    <path
      fill-rule="evenodd"
      clip-rule="evenodd"
      d="M313.225 57.6225L305.97 62.3407L302.284 58.7733C296.526 53.1353 293.762 54.1709 289.386 63.4914C286.737 69.2445 283.398 69.9354 277.64 66.1377C275.336 64.527 272.457 63.146 271.306 63.146C268.772 63.146 266.353 67.0582 265.317 72.2362C264.511 76.4938 261.747 80.406 259.444 80.406C258.638 80.406 255.643 79.3704 252.765 78.1045C248.388 76.1484 247.006 76.0333 244.588 77.0689C241.824 78.3348 241.593 79.025 241.593 86.6197C241.593 92.1432 240.787 96.4008 239.29 99.6227C237.102 104.455 236.987 104.571 231.574 104.571C222.591 104.571 218.33 109.058 222.706 114.006C225.01 116.422 223.512 118.954 219.021 119.99C210.729 122.061 208.311 127.354 212.802 132.992C215.912 137.019 215.797 137.595 210.844 139.897C205.662 142.428 204.856 145.305 208.196 148.872C210.729 151.634 210.729 151.748 209.347 166.938C207.966 181.666 208.426 222.746 210.039 227.003C210.499 228.269 209.002 229.535 204.511 231.836C195.067 236.554 194.376 237.474 194.376 245.069C194.376 254.85 195.874 257.381 202.323 258.302C208.887 259.222 213.033 260.718 214.185 262.559C214.645 263.365 215.106 267.047 215.106 270.844C215.106 279.014 217.64 290.521 220.749 296.504C229.501 313.535 252.304 322.164 279.944 318.943C293.533 317.217 301.479 314.57 310.116 308.817C323.015 300.187 329.003 289.14 329.925 271.765C330.616 261.178 330.616 261.178 334.071 260.028C338.562 258.417 349.733 258.417 354.339 260.028C357.91 261.294 357.91 261.294 357.91 269.464C357.91 278.9 360.328 290.176 363.553 296.505C372.305 313.535 395.107 322.165 422.631 318.944C436.336 317.217 444.282 314.571 452.92 308.818C465.818 300.188 471.807 288.796 472.958 270.96C473.764 259.223 473.189 259.799 485.857 258.187C492.306 257.382 493.803 254.85 493.803 244.955C493.803 237.13 492.536 235.634 481.826 231.032L475.377 228.27V216.763C475.261 197.086 472.497 183.163 467.66 178.675C466.048 177.18 462.478 174.878 459.599 173.497C455.108 171.311 454.187 171.196 452.805 172.692C451.423 174.073 451.768 175.339 455.223 182.243C459.484 190.758 463.284 205.141 464.551 217.569L465.357 225.164L457.987 223.552C453.956 222.747 448.774 222.057 446.585 221.942C444.282 221.942 438.524 219.87 432.766 216.994C423.207 212.276 422.747 212.16 411.461 212.16C398.562 212.16 389.464 214.807 382.094 220.56C379.905 222.287 375.299 224.473 372.075 225.279C368.735 226.084 362.516 228.27 358.255 230.111C347.084 234.829 341.326 234.599 327.045 228.845C320.827 226.314 314.953 224.243 314.147 224.243C313.341 224.243 310.692 222.632 308.274 220.676C300.673 214.692 292.151 212.16 279.022 212.16C267.851 212.16 267.16 212.391 257.256 217.108C250.576 220.33 245.394 221.942 242.284 221.942C239.751 222.057 234.223 222.747 230.078 223.667C218.331 226.199 219.252 227.695 220.173 208.363C220.864 191.794 223.052 177.756 225.586 172.922C228.465 167.514 251.267 155.892 273.84 148.298C301.825 138.977 333.264 135.41 368.735 137.827C399.138 139.783 407.2 142.314 440.828 160.38C452.574 166.709 463.515 171.772 466.048 172.117C470.194 172.692 470.539 172.462 471.806 169.009C474.571 161.07 472.382 141.048 467.776 131.958C464.321 125.284 464.091 122.752 466.048 115.848C467.43 111.015 467.43 109.98 465.703 107.448C464.091 105.032 462.939 104.572 458.333 104.572C455.338 104.687 450.732 105.147 448.083 105.607C443.361 106.528 443.246 106.528 443.822 103.536C446.125 92.2596 443.361 89.7278 432.19 92.6044C428.62 93.5249 425.28 94.1006 425.05 93.7551C424.705 93.4104 425.05 89.9581 425.856 86.1611C427.237 79.9474 427.123 78.9118 425.51 77.1853C423.783 75.5747 422.747 75.5747 416.067 76.8406C405.357 79.0269 401.326 77.9913 397.41 72.0073C393.38 66.139 389.694 64.0678 385.894 65.5633C383.821 66.3686 381.633 66.0239 377.487 64.1829C373.11 62.342 370.577 61.8814 366.662 62.4565C362.631 63.1473 360.443 62.6867 356.642 60.7307C352.727 58.7746 350.539 58.4292 345.817 59.0042C340.75 59.5799 338.907 59.1193 333.034 56.2428C329.349 54.4018 324.973 52.9057 323.36 52.7905C321.748 52.7905 317.256 54.9769 313.226 57.6238L313.225 57.6225V57.6225ZM302.169 241.847C315.989 246.335 320.25 252.434 320.365 267.853C320.48 276.022 320.02 278.669 317.832 283.157C310.231 298.691 288.58 307.436 262.898 305.48C243.206 303.869 233.071 298.346 227.659 286.148C224.204 278.209 223.743 259.222 226.967 253.354C229.962 247.831 235.72 244.034 245.163 241.502C252.534 239.546 256.565 239.315 274.991 239.546C290.883 239.891 297.793 240.466 302.169 241.847V241.847ZM444.972 241.847C458.792 246.335 463.053 252.434 463.168 267.853C463.283 276.022 462.823 278.669 460.635 283.157C453.034 298.691 431.383 307.436 405.701 305.48C386.009 303.869 375.874 298.346 370.462 286.148C367.007 278.209 366.546 259.222 369.77 253.354C372.765 247.831 378.523 244.034 387.966 241.502C395.337 239.546 399.368 239.315 417.794 239.546C433.686 239.891 440.596 240.466 444.972 241.847V241.847Z"
      fill="black"
    />
    <path
      fill-rule="evenodd"
      clip-rule="evenodd"
      d="M265.086 255.771C258.983 258.647 251.957 265.897 251.957 269.349C251.957 271.995 253.8 271.995 257.37 269.119C266.698 261.754 286.507 261.754 296.641 269.003C298.598 270.269 300.672 271.419 301.363 271.419C303.781 271.419 302.63 267.277 298.945 262.904C294.108 256.921 285.47 253.009 277.293 253.009C273.032 253.009 269.002 253.929 265.086 255.77V255.771V255.771Z"
      fill="#533824"
    />
    <path
      fill-rule="evenodd"
      clip-rule="evenodd"
      d="M398.677 255.771C392.573 258.647 385.548 265.897 385.548 269.349C385.548 271.995 387.391 271.995 390.961 269.119C400.289 261.754 420.097 261.754 430.232 269.003C432.189 270.269 434.262 271.419 434.954 271.419C437.372 271.419 436.22 267.277 432.535 262.904C427.698 256.921 419.061 253.009 410.884 253.009C406.623 253.009 402.593 253.929 398.677 255.77L398.677 255.771V255.771Z"
      fill="#533824"
    />
    <path
      fill-rule="evenodd"
      clip-rule="evenodd"
      d="M317.256 310.773C318.523 315.721 322.208 319.634 328.657 322.741C333.84 325.272 336.488 325.848 344.089 325.848C351.689 325.848 354.339 325.272 359.521 322.741C365.97 319.634 369.655 315.722 370.922 310.773L371.498 308.242H344.089H316.68L317.256 310.773V310.773Z"
      fill="#AF754C"
    />
    <path
      fill-rule="evenodd"
      clip-rule="evenodd"
      d="M210.039 227.003C210.499 228.269 209.002 229.535 204.511 231.836C195.215 236.479 194.4 237.446 194.376 244.718V245.07C194.376 254.85 195.874 257.381 202.322 258.302C208.887 259.222 213.034 260.718 214.186 262.559C214.645 263.365 215.107 267.047 215.107 270.844C215.107 279.014 217.64 290.522 220.75 296.504C229.502 313.535 252.304 322.164 279.943 318.943C293.532 317.216 301.479 314.57 310.116 308.817C323.015 300.187 329.003 289.141 329.924 271.765C330.615 261.178 330.616 261.178 334.071 260.028C338.562 258.418 349.733 258.418 354.34 260.028C357.909 261.293 357.909 261.293 357.909 269.464C357.909 278.899 360.328 290.176 363.552 296.506C372.305 313.535 395.107 322.164 422.631 318.943C436.336 317.217 444.282 314.57 452.92 308.818C465.818 300.188 471.807 288.796 472.958 270.96C473.764 259.222 473.189 259.799 485.857 258.187C492.305 257.382 493.803 254.85 493.803 244.954C493.803 237.13 492.536 235.635 481.826 231.032L475.376 228.269L465.357 225.164L457.987 223.552C453.956 222.747 448.774 222.056 446.585 221.941C444.282 221.941 438.525 219.87 432.766 216.994C423.207 212.276 422.747 212.16 411.461 212.16C398.563 212.16 389.464 214.807 382.093 220.561C379.905 222.286 375.299 224.473 372.074 225.278C368.734 226.084 362.516 228.27 358.255 230.111C347.084 234.829 341.326 234.599 327.046 228.845C320.827 226.315 314.953 224.242 314.148 224.242C313.34 224.242 310.692 222.632 308.274 220.676C300.673 214.692 292.151 212.16 279.022 212.16C267.851 212.16 267.161 212.391 257.257 217.109C250.577 220.331 245.394 221.941 242.284 221.941C239.75 222.056 234.223 222.747 230.077 223.667L210.039 227.003V227.003ZM302.17 241.848C315.988 246.336 320.249 252.434 320.365 267.853C320.48 276.023 320.02 278.67 317.832 283.156C310.232 298.691 288.58 307.437 262.898 305.479C243.206 303.869 233.071 298.346 227.659 286.149C224.204 278.209 223.743 259.222 226.967 253.354C229.962 247.83 235.72 244.034 245.163 241.502C252.534 239.546 256.565 239.316 274.991 239.546C290.883 239.89 297.793 240.467 302.17 241.848V241.848ZM444.972 241.848C458.793 246.336 463.053 252.434 463.169 267.853C463.284 276.023 462.823 278.67 460.635 283.156C453.034 298.691 431.383 307.437 405.701 305.479C386.009 303.869 375.874 298.346 370.461 286.149C367.006 278.209 366.546 259.222 369.77 253.354C372.765 247.83 378.523 244.034 387.966 241.502C395.337 239.546 399.367 239.316 417.793 239.546C433.686 239.89 440.596 240.467 444.972 241.848V241.848Z"
      fill="#090E16"
    />
    <path
      fill-rule="evenodd"
      clip-rule="evenodd"
      d="M311.958 357.031C313.456 366.581 320.711 376.362 329.694 380.965C336.258 384.417 348.35 385.107 355.261 382.461C365.625 378.434 374.608 367.617 376.221 357.031H311.958V357.031Z"
      fill="#3E291B"
    />
    <path
      d="M384.721 579.002L392.116 572.994C393.83 571.602 396.349 571.861 397.742 573.574C399.136 575.286 398.876 577.802 397.162 579.195L393.583 582.102L419.568 603.978C421.281 605.37 421.541 607.887 420.148 609.599C419.357 610.57 418.205 611.074 417.043 611.074C416.156 611.074 415.263 610.781 414.522 610.179L384.721 585.202C383.787 584.443 383.245 583.305 383.245 582.102C383.245 580.899 383.787 579.76 384.721 579.002V579.002Z"
      fill="#7B4AE2"
    />
    <path
      d="M417.56 542.293C419.683 542.31 421.391 544.043 421.374 546.165L421.044 607.263C421.027 609.384 419.291 611.091 417.168 611.074C416.63 611.07 416.119 610.955 415.656 610.752C414.291 610.154 413.341 608.786 413.354 607.201L413.685 546.104C413.702 543.982 415.437 542.276 417.56 542.293V542.293Z"
      fill="#7B4AE2"
    />
    <path
      d="M434.437 584.321L437.168 582.102L427.441 574.198C425.727 572.806 425.468 570.29 426.861 568.577C428.254 566.865 430.773 566.606 432.487 567.998L446.03 579.002C446.964 579.76 447.506 580.899 447.506 582.102C447.506 583.305 446.964 584.443 446.03 585.202L439.483 590.522C438.742 591.123 437.849 591.417 436.963 591.417C435.8 591.417 434.647 590.913 433.857 589.942C432.464 588.23 432.724 585.713 434.437 584.321V584.321Z"
      fill="#C83267"
    />
    <path
      fill-rule="evenodd"
      clip-rule="evenodd"
      d="M264.624 467.93C230.652 471.236 199.789 483.889 174.107 504.977C152.008 523.046 145.842 537.407 129.663 557.86C162.628 592.033 206.958 620.988 255.298 636.98C287.543 647.58 309.539 651 344.088 651C378.639 651 400.634 647.58 432.881 636.98C481.648 621.396 522.728 595.859 559.759 559.205C534.396 526.495 523.957 505.057 483.091 484.914C465.931 476.365 445.778 470.21 430.346 468.614L423.078 467.959L422.733 467.952L421.939 473.402C418.485 499.392 385.894 518.542 345.24 518.542C304.588 518.542 272.573 499.619 268.426 473.288C267.621 468.045 267.274 467.588 264.626 467.93H264.624V467.93Z"
      fill="#090E16"
    />
    <path
      d="M411.489 561.392L415.339 558.264C416.231 557.539 417.542 557.675 418.267 558.566C418.993 559.457 418.857 560.768 417.965 561.492L416.102 563.006L429.628 574.396C430.52 575.12 430.656 576.431 429.93 577.322C429.519 577.828 428.919 578.09 428.314 578.09C427.853 578.09 427.388 577.938 427.002 577.624L411.489 564.62C411.003 564.225 410.721 563.632 410.721 563.006C410.721 562.38 411.003 561.787 411.489 561.392V561.392Z"
      fill="white"
    />
    <path
      d="M428.584 542.28C429.689 542.289 430.578 543.191 430.569 544.296L430.397 576.106C430.388 577.211 429.485 578.099 428.379 578.09C428.099 578.088 427.834 578.028 427.592 577.923C426.882 577.611 426.387 576.899 426.394 576.074L426.566 544.264C426.575 543.16 427.478 542.271 428.584 542.28V542.28Z"
      fill="white"
    />
    <path
      d="M437.369 564.161L438.79 563.006L433.727 558.891C432.835 558.167 432.7 556.856 433.425 555.965C434.15 555.073 435.461 554.938 436.353 555.663L443.403 561.392C443.89 561.787 444.172 562.38 444.172 563.006C444.172 563.632 443.89 564.225 443.403 564.62L439.995 567.39C439.609 567.703 439.145 567.856 438.683 567.856C438.078 567.856 437.478 567.594 437.067 567.088C436.342 566.196 436.477 564.886 437.369 564.161Z"
      fill="#7B4AE2"
    />
  </g>
  <defs>
    <filter
      id="filter0_d_155_319"
      x="509.333"
      y="250.3"
      width="171.62"
      height="171.62"
      filterUnits="userSpaceOnUse"
      color-interpolation-filters="sRGB"
    >
      <feFlood flood-opacity="0" result="BackgroundImageFix" />
      <feColorMatrix
        in="SourceAlpha"
        type="matrix"
        values="0 0 0 0 0 0 0 0 0 0 0 0 0 0 0 0 0 0 127 0"
        result="hardAlpha"
      />
      <feOffset dy="4" />
      <feGaussianBlur stdDeviation="25" />
      <feComposite in2="hardAlpha" operator="out" />
      <feColorMatrix
        type="matrix"
        values="0 0 0 0 0 0 0 0 0 0 0 0 0 0 0 0 0 0 0.5 0"
      />
      <feBlend
        mode="normal"
        in2="BackgroundImageFix"
        result="effect1_dropShadow_155_319"
      />
      <feBlend
        mode="normal"
        in="SourceGraphic"
        in2="effect1_dropShadow_155_319"
        result="shape"
      />
    </filter>
    <filter
      id="filter1_d_155_319"
      x="25"
      y="158.984"
      width="171.621"
      height="171.62"
      filterUnits="userSpaceOnUse"
      color-interpolation-filters="sRGB"
    >
      <feFlood flood-opacity="0" result="BackgroundImageFix" />
      <feColorMatrix
        in="SourceAlpha"
        type="matrix"
        values="0 0 0 0 0 0 0 0 0 0 0 0 0 0 0 0 0 0 127 0"
        result="hardAlpha"
      />
      <feOffset dy="4" />
      <feGaussianBlur stdDeviation="25" />
      <feComposite in2="hardAlpha" operator="out" />
      <feColorMatrix
        type="matrix"
        values="0 0 0 0 0 0 0 0 0 0 0 0 0 0 0 0 0 0 0.5 0"
      />
      <feBlend
        mode="normal"
        in2="BackgroundImageFix"
        result="effect1_dropShadow_155_319"
      />
      <feBlend
        mode="normal"
        in="SourceGraphic"
        in2="effect1_dropShadow_155_319"
        result="shape"
      />
    </filter>
    <filter
      id="filter2_d_155_319"
      x="25"
      y="388.169"
      width="171.621"
      height="171.62"
      filterUnits="userSpaceOnUse"
      color-interpolation-filters="sRGB"
    >
      <feFlood flood-opacity="0" result="BackgroundImageFix" />
      <feColorMatrix
        in="SourceAlpha"
        type="matrix"
        values="0 0 0 0 0 0 0 0 0 0 0 0 0 0 0 0 0 0 127 0"
        result="hardAlpha"
      />
      <feOffset dy="4" />
      <feGaussianBlur stdDeviation="25" />
      <feComposite in2="hardAlpha" operator="out" />
      <feColorMatrix
        type="matrix"
        values="0 0 0 0 0 0 0 0 0 0 0 0 0 0 0 0 0 0 0.5 0"
      />
      <feBlend
        mode="normal"
        in2="BackgroundImageFix"
        result="effect1_dropShadow_155_319"
      />
      <feBlend
        mode="normal"
        in="SourceGraphic"
        in2="effect1_dropShadow_155_319"
        result="shape"
      />
    </filter>
    <filter
      id="filter3_f_155_319"
      x="29.4761"
      y="1"
      width="610.296"
      height="610.296"
      filterUnits="userSpaceOnUse"
      color-interpolation-filters="sRGB"
    >
      <feFlood flood-opacity="0" result="BackgroundImageFix" />
      <feBlend
        mode="normal"
        in="SourceGraphic"
        in2="BackgroundImageFix"
        result="shape"
      />
      <feGaussianBlur
        stdDeviation="25"
        result="effect1_foregroundBlur_155_319"
      />
    </filter>
    <filter
      id="filter4_i_155_319"
      x="129.663"
      y="52.7905"
      width="430.095"
      height="602.209"
      filterUnits="userSpaceOnUse"
      color-interpolation-filters="sRGB"
    >
      <feFlood flood-opacity="0" result="BackgroundImageFix" />
      <feBlend
        mode="normal"
        in="SourceGraphic"
        in2="BackgroundImageFix"
        result="shape"
      />
      <feColorMatrix
        in="SourceAlpha"
        type="matrix"
        values="0 0 0 0 0 0 0 0 0 0 0 0 0 0 0 0 0 0 127 0"
        result="hardAlpha"
      />
      <feOffset dy="4" />
      <feGaussianBlur stdDeviation="2" />
      <feComposite in2="hardAlpha" operator="arithmetic" k2="-1" k3="1" />
      <feColorMatrix
        type="matrix"
        values="0 0 0 0 0 0 0 0 0 0 0 0 0 0 0 0 0 0 0.25 0"
      />
      <feBlend mode="normal" in2="shape" result="effect1_innerShadow_155_319" />
    </filter>
    <clipPath id="clip0_155_319">
      <rect
        width="35.8102"
        height="35.8102"
        fill="white"
        transform="translate(577.238 314.205)"
      />
    </clipPath>
    <clipPath id="clip1_155_319">
      <rect
        width="35.8102"
        height="35.8102"
        fill="white"
        transform="translate(92.9053 452.074)"
      />
    </clipPath>
  </defs>
</svg>
