<svg width="40" height="40" viewBox="0 0 40 40" fill="none" xmlns="http://www.w3.org/2000/svg">
<path d="M0.918854 21.3482L5.52214 17.8543C6.58891 17.0448 8.15689 17.1958 9.024 18.1913C9.89152 19.1872 9.72974 20.6509 8.66296 21.4604L6.43528 23.1512L22.6093 35.8732C23.6761 36.6827 23.8378 38.1464 22.9703 39.1419C22.4785 39.7071 21.7609 40 21.0377 40C20.4859 40 19.9301 39.8296 19.4689 39.4793L0.918854 24.9542C0.337791 24.513 0 23.8507 0 23.1512C0 22.4516 0.337791 21.7898 0.918854 21.3482V21.3482Z" fill="white"/>
<path d="M21.3599 7.32817e-05C22.6814 0.00996334 23.7445 1.018 23.7339 2.25197L23.5281 37.7835C23.5175 39.0175 22.4373 40.0095 21.1158 39.9996C20.7809 39.9974 20.4631 39.9308 20.1746 39.8129C19.325 39.4648 18.7337 38.6694 18.7415 37.7478L18.9477 2.21659C18.9582 0.982613 20.0381 -0.00981677 21.3599 7.32817e-05V7.32817e-05Z" fill="white"/>
<path d="M31.8651 24.4414L33.5651 23.1512L27.51 18.555C26.4432 17.7455 26.2819 16.2818 27.149 15.2863C28.0161 14.2901 29.5841 14.1394 30.6508 14.9489L39.0811 21.3481C39.6626 21.7898 40 22.4516 40 23.1512C40 23.8507 39.6626 24.513 39.0811 24.9542L35.006 28.0475C34.5443 28.3979 33.9889 28.5683 33.4372 28.5683C32.7135 28.5683 31.9959 28.2754 31.5041 27.7105C30.637 26.7146 30.7988 25.2513 31.8651 24.4414Z" fill="#7B4AE2"/>
</svg>
